<svg t="1591847834836" class="icon" viewBox="0 0 1024 1024" version="1.1" xmlns="http://www.w3.org/2000/svg" p-id="21151" width="128" height="128"><path d="M467.06509 320.623321c6.089695 20.11206 9.373485 41.430598 9.374508 63.526849 0 120.942513-98.089016 219.026412-219.037668 219.026412-42.871413 0-82.866313-12.33391-116.650767-33.643238l0 153.425322 17.279548 0 0 1.376347 542.080086 0 0-1.376347 16.810874 0L716.921671 391.726729c0-0.871857 0.313132-1.657756 0.493234-2.476401l0-51.186799c0-9.630335-7.763824-17.443277-17.307178-17.443277L467.06509 320.623321 467.06509 320.623321z" p-id="21152"></path><path d="M734.429417 847.182922c0 0.726547 0.097214 1.429559 0.097214 2.133593 1.163499 49.615001 41.417295 89.673345 90.89415 89.673345 49.475831 0 89.740884-40.058344 90.882893-89.673345 0.020466-0.704035 0.102331-1.407046 0.102331-2.133593 0-5.206582-0.530073-10.305717-1.359974-15.288195-1.010003-6.036483-2.586918-11.879562-4.710278-17.460674-9.863648-25.89374-30.981618-46.221718-57.351196-54.685483-8.700149-2.792603-17.951861-4.330632-27.568892-4.330632-9.584286 0-18.833951 1.541099-27.549449 4.330632-26.368554 8.463766-47.488571 28.794813-57.351196 54.685483-2.12029 5.588275-3.711532 11.423167-4.704139 17.460674C734.961536 836.878229 734.431463 841.97634 734.429417 847.182922zM787.323091 847.176782c0-5.427616 1.155313-10.570753 3.199878-15.287171 3.169179-7.290033 8.532327-13.30912 15.22168-17.460674 5.770424-3.51608 12.466939-5.686513 19.677155-5.686513 7.227612 0 13.921058 2.170432 19.678178 5.686513 6.715959 4.151553 12.097526 10.169617 15.253402 17.460674 2.037403 4.716418 3.193739 9.861602 3.193739 15.287171 0 0.75213-0.163729 1.436722-0.233314 2.140757-1.128707 20.203134-17.605983 36.305881-37.903262 36.305881-20.290115 0-36.754089-16.1007-37.896098-36.305881C787.484773 848.613504 787.314904 847.927889 787.323091 847.176782z" p-id="21153"></path><path d="M728.463542 746.206136 398.063553 746.206136c6.932899 3.842515 13.400195 8.404414 19.351744 13.537318 16.545838 14.247492 29.033243 33.148981 35.368532 54.683437 1.678222 5.65172 2.837628 11.513218 3.629667 17.460674 0.685615 5.015224 1.14815 10.096962 1.14815 15.287171 0 0.733711-0.079818 1.437745-0.11461 2.140757l254.011204 0c-0.00921-0.703011-0.097214-1.407046-0.097214-2.140757 0-5.190209 0.468674-10.271948 1.14201-15.287171 0.781806-5.948479 1.964748-11.806907 3.637854-17.460674 6.372128-21.535479 18.835997-40.436968 35.380812-54.683437l1.293459 0c-0.379647 0-0.76134-0.104377-1.174756-0.135076 8.170077-6.988158 17.306154-12.844539 27.203572-17.324574 7.414877-3.348258 15.192004-5.991458 23.328311-7.694239 7.498788-1.603521 15.287171-2.444679 23.248494-2.444679 7.973602 0 15.751752 0.841158 23.24133 2.444679 8.157797 1.700735 15.954367 4.351098 23.329335 7.694239 9.962909 4.51278 19.155269 10.395768 27.339672 17.45965 16.544815 14.247492 29.016871 33.148981 35.381835 54.683437 1.657756 5.65172 2.835581 11.513218 3.614317 17.460674 0.703011 5.015224 1.14201 10.096962 1.14201 15.287171 0 0.733711-0.081864 1.437745-0.116657 2.140757l18.940374 0c9.55154 0 17.290805-7.7935 17.290805-17.421788l0-89.604784c0-4.430916-1.740644-8.461719-4.425799-11.538801L971.158003 600.425935c0-100.805894-65.928548-152.915715-68.74264-155.094334-3.032056-2.334161-6.715959-3.595898-10.510378-3.595898L752.818229 441.735703c-5.127787 0-9.66615 2.298346-12.834306 5.871731l0 277.237185 0 9.748015c0 2.973728-1.215688 5.65172-3.041266 7.694239l-1.420349 0c0 0.402159 0.095167 0.76748 0.115634 1.168616C733.663984 745.097896 731.210096 746.206136 728.463542 746.206136L728.463542 746.206136zM770.104941 476.624305l115.394147 0c11.508102 10.658757 43.020816 44.822858 49.726541 102.085026L770.104941 578.709331 770.104941 476.624305z" p-id="21154"></path><path d="M252.538155 847.182922c0 0.726547 0.080841 1.429559 0.094144 2.133593 1.164522 49.615001 41.417295 89.673345 90.896196 89.673345 49.475831 0 89.740884-40.058344 90.889033-89.673345 0.01535-0.704035 0.095167-1.407046 0.095167-2.133593 0-5.206582-0.515746-10.305717-1.379417-15.288195-1.001817-6.036483-2.584871-11.874445-4.711302-17.460674-9.863648-25.89374-30.979572-46.221718-57.341986-54.685483-8.709359-2.792603-17.937534-4.330632-27.559683-4.330632-9.616008 0-18.863626 1.541099-27.556613 4.330632-26.363438 8.463766-47.479361 28.794813-57.344033 54.685483-2.109034 5.588275-3.698229 11.423167-4.705162 17.460674C253.066181 836.878229 252.536109 841.97634 252.538155 847.182922zM305.406247 847.176782c0-5.427616 1.164522-10.570753 3.200902-15.287171 3.14769-7.290033 8.53949-13.30912 15.246239-17.460674 5.777587-3.51608 12.440333-5.686513 19.665899-5.686513 7.232728 0 13.907755 2.170432 19.678178 5.686513 6.702656 4.151553 12.072967 10.169617 15.242146 17.460674 2.025123 4.716418 3.179412 9.861602 3.179412 15.287171 0 0.75213-0.161682 1.436722-0.196475 2.140757-1.128707 20.203134-17.60496 36.305881-37.903262 36.305881-20.274766 0-36.773532-16.1007-37.902238-36.305881C305.589418 848.613504 305.400107 847.927889 305.406247 847.176782z" p-id="21155"></path><path d="M298.058908 741.77215 175.886381 741.77215c0 0.160659-0.048095 0.347924-0.048095 0.517793l0 3.91517 0 85.685521c0 9.636474 7.721869 17.421788 17.272385 17.421788l36.476773 0c0-0.704035-0.115634-1.400906-0.115634-2.133593 0-5.190209 0.481977-10.270924 1.140986-15.288195 0.795109-5.951549 1.957585-11.80793 3.64911-17.460674 6.348592-21.541619 18.816554-40.441061 35.380812-54.685483 5.948479-5.133927 12.398378-9.698896 19.327184-13.537318 2.587941-1.440815 5.273097-2.679016 7.958252-3.91517C297.331337 742.140541 297.678238 741.922576 298.058908 741.77215L298.058908 741.77215z" p-id="21156"></path><path d="M263.964392 199.216227c-98.279351 0-177.949878 79.669504-177.949878 177.951925 0 98.276281 79.670527 177.946808 177.949878 177.946808 98.278327 0 177.950901-79.668481 177.950901-177.946808C441.915293 278.885731 362.242719 199.216227 263.964392 199.216227zM224.534358 284.132222l144.68424 0 0 15.838733-58.430784 0c-3.139503 8.276501-6.564509 16.338107-10.272971 24.185842l0 23.329335 7.704472-8.989745c23.399943 17.83725 44.588521 34.887578 63.566758 51.15303l-12.199856 14.554484c-19.549242-17.978467-39.239699-34.743292-59.072397-50.296523l0 91.176582-17.121959 0 0-92.03309c-16.124236 23.258727-36.456307 43.305295-60.998259 60.141752-3.423983-4.136204-7.348362-8.417717-11.771091-12.841469 39.809681-27.110451 66.847477-60.570517 81.117482-100.380198L224.534358 299.970956 224.534358 284.132222zM187.079304 271.291776c9.987468 12.69923 19.974937 26.183336 29.964452 40.450271l-15.196097 10.701736c-9.702989-15.409968-19.192108-29.392424-28.466332-41.949414L187.079304 271.291776zM367.505583 472.050126c-42.805922 0.427742-83.471087 0.14224-121.996518-0.856507-23.686469-0.285502-40.59558-8.56098-50.725288-24.827455-5.992481 5.849218-14.553461 15.410991-25.683962 28.680203l-8.774851-17.764596c10.701736-10.416234 19.832697-19.119453 27.395954-26.111704l0-72.127737-25.470091 0 0-15.838733 41.950438 0 0 91.176582c8.988722 13.984503 23.970948 21.189601 44.945655 21.617343 40.949644 0.856507 82.400708 0.571005 124.351146-0.856507C371.928313 459.85027 369.929796 465.485617 367.505583 472.050126z" p-id="21157"></path></svg>