<svg t="1591852547548" class="icon" viewBox="0 0 1024 1024" version="1.1" xmlns="http://www.w3.org/2000/svg" p-id="22879" width="128" height="128"><path d="M467.06509 320.623321c6.089695 20.11206 9.373485 41.430598 9.374508 63.526849 0 120.942513-98.089016 219.026412-219.037668 219.026412-42.871413 0-82.866313-12.33391-116.650767-33.643238l0 153.425322 17.279548 0 0 1.375324 542.080086 0 0-1.375324 16.810874 0L716.921671 391.726729c0-0.871857 0.313132-1.657756 0.49528-2.476401l0-51.184753c0-9.632381-7.763824-17.443277-17.307178-17.443277L467.06509 320.622298 467.06509 320.623321z" p-id="22880"></path><path d="M734.429417 847.182922c0 0.726547 0.095167 1.431605 0.095167 2.133593 1.163499 49.615001 41.417295 89.673345 90.896196 89.673345 49.473785 0 89.740884-40.058344 90.882893-89.673345 0.020466-0.701988 0.102331-1.407046 0.102331-2.133593 0-5.206582-0.530073-10.305717-1.359974-15.288195-1.01205-6.03853-2.588965-11.881608-4.710278-17.461697-9.863648-25.891693-30.981618-46.221718-57.351196-54.685483-8.700149-2.792603-17.951861-4.332678-27.568892-4.332678-9.584286 0-18.835997 1.541099-27.549449 4.332678-26.368554 8.463766-47.488571 28.79379-57.351196 54.685483-2.12029 5.588275-3.711532 11.423167-4.704139 17.461697C734.961536 836.878229 734.431463 841.97634 734.429417 847.182922zM787.323091 847.176782c0-5.425569 1.155313-10.570753 3.199878-15.287171 3.169179-7.290033 8.532327-13.30912 15.22168-17.460674 5.770424-3.514033 12.466939-5.684466 19.678178-5.684466 7.225565 0 13.921058 2.170432 19.678178 5.684466 6.715959 4.151553 12.097526 10.17064 15.253402 17.460674 2.038426 4.716418 3.193739 9.861602 3.193739 15.287171 0 0.754177-0.163729 1.438769-0.231267 2.140757-1.128707 20.203134-17.605983 36.305881-37.903262 36.305881-20.290115 0-36.754089-16.102746-37.896098-36.305881C787.484773 848.615551 787.314904 847.929936 787.323091 847.176782z" p-id="22881"></path><path d="M728.463542 746.206136 398.063553 746.206136c6.932899 3.842515 13.398148 8.404414 19.351744 13.538341 16.545838 14.247492 29.033243 33.146934 35.368532 54.682413 1.678222 5.653767 2.839675 11.513218 3.629667 17.460674 0.685615 5.015224 1.14815 10.096962 1.14815 15.287171 0 0.733711-0.079818 1.439792-0.11461 2.140757l254.009158 0c-0.007163-0.700965-0.095167-1.407046-0.095167-2.140757 0-5.190209 0.468674-10.271948 1.14201-15.287171 0.781806-5.948479 1.964748-11.806907 3.63683-17.460674 6.371104-21.535479 18.837021-40.434921 35.381835-54.682413l1.291412 0c-0.379647 0-0.76134-0.104377-1.174756-0.135076 8.170077-6.988158 17.306154-12.844539 27.203572-17.324574 7.414877-3.348258 15.192004-5.991458 23.328311-7.692193 7.498788-1.603521 15.287171-2.444679 23.248494-2.444679 7.973602 0 15.749706 0.841158 23.240307 2.444679 8.156774 1.700735 15.953344 4.351098 23.328311 7.692193 9.964956 4.514827 19.155269 10.397814 27.339672 17.45965 16.544815 14.247492 29.018917 33.146934 35.381835 54.682413 1.658779 5.653767 2.835581 11.513218 3.616364 17.460674 0.700965 5.015224 1.14201 10.096962 1.14201 15.287171 0 0.733711-0.081864 1.439792-0.116657 2.140757l18.938328 0c9.55154 0 17.292851-7.7935 17.292851-17.421788l0-89.606831c0-4.430916-1.740644-8.459672-4.425799-11.538801L971.155956 600.425935c0-100.803847-65.928548-152.913669-68.74264-155.092287-3.032056-2.334161-6.715959-3.595898-10.510378-3.595898L752.818229 441.73775c-5.125741 0-9.66615 2.298346-12.834306 5.873778l0 277.235139 0 9.750061c0 2.973728-1.215688 5.65172-3.039219 7.692193l-1.420349 0c0 0.402159 0.095167 0.76748 0.115634 1.168616C733.663984 745.097896 731.210096 746.206136 728.463542 746.206136L728.463542 746.206136zM770.104941 476.624305l115.394147 0c11.508102 10.658757 43.020816 44.822858 49.724495 102.085026L770.104941 578.709331 770.104941 476.624305z" p-id="22882"></path><path d="M252.538155 847.182922c0 0.726547 0.080841 1.431605 0.094144 2.133593 1.164522 49.615001 41.417295 89.673345 90.896196 89.673345 49.473785 0 89.740884-40.058344 90.889033-89.673345 0.01535-0.701988 0.095167-1.407046 0.095167-2.133593 0-5.206582-0.515746-10.305717-1.379417-15.288195-1.000793-6.03853-2.584871-11.874445-4.711302-17.461697-9.863648-25.891693-30.981618-46.221718-57.344033-54.685483-8.707312-2.792603-17.937534-4.332678-27.557636-4.332678-9.618055 0-18.863626 1.541099-27.556613 4.332678-26.363438 8.463766-47.479361 28.79379-57.344033 54.685483-2.109034 5.588275-3.698229 11.423167-4.705162 17.461697C253.066181 836.878229 252.536109 841.97634 252.538155 847.182922zM305.406247 847.176782c0-5.425569 1.162476-10.570753 3.200902-15.287171 3.14769-7.290033 8.537444-13.30912 15.246239-17.460674 5.77861-3.514033 12.440333-5.684466 19.665899-5.684466 7.232728 0 13.907755 2.170432 19.678178 5.684466 6.702656 4.151553 12.072967 10.17064 15.242146 17.460674 2.0241 4.716418 3.179412 9.861602 3.179412 15.287171 0 0.754177-0.161682 1.438769-0.196475 2.140757-1.128707 20.203134-17.60496 36.305881-37.903262 36.305881-20.275789 0-36.773532-16.102746-37.902238-36.305881C305.589418 848.615551 305.400107 847.929936 305.406247 847.176782z" p-id="22883"></path><path d="M298.058908 741.77215 175.886381 741.77215c0 0.162706-0.048095 0.347924-0.048095 0.517793l0 3.91517 0 85.687568c0 9.636474 7.721869 17.421788 17.272385 17.421788l36.476773 0c0-0.701988-0.115634-1.400906-0.115634-2.133593 0-5.190209 0.481977-10.270924 1.140986-15.288195 0.795109-5.953595 1.957585-11.80793 3.64911-17.461697 6.348592-21.539572 18.816554-40.439014 35.380812-54.685483 5.948479-5.133927 12.398378-9.698896 19.327184-13.538341 2.587941-1.440815 5.273097-2.679016 7.958252-3.91517C297.331337 742.140541 297.678238 741.922576 298.058908 741.77215L298.058908 741.77215z" p-id="22884"></path><path d="M341.98842 393.131729l-87.670735 0 0 25.211195 87.670735 0L341.98842 393.131729zM341.98842 433.333336l-87.670735 0 0 24.984021 87.670735 0L341.98842 433.333336zM269.0799 208.425983c-98.279351 0-177.949878 79.669504-177.949878 177.951925 0 98.278327 79.670527 177.946808 177.949878 177.946808S447.031824 484.657258 447.031824 386.377908C447.031824 288.095487 367.35925 208.425983 269.0799 208.425983zM203.668121 485.800291 186.405969 485.800291l0-131.279952c-7.193843 12.113899-14.688537 23.167652-22.485107 33.161261-2.574638-8.17724-4.996804-14.990413-7.268544-20.441565 23.166629-33.614585 40.201607-68.212568 51.102888-103.797018l17.7165 6.132674c-6.889921 18.928095-14.157441 36.416398-21.804608 52.465932L203.667098 485.800291zM359.250572 485.800291l-17.262152 0 0-12.038174-87.670735 0 0 12.038174-17.262152 0 0-108.1123 122.19504 0L359.250572 485.800291zM380.372635 358.835621 219.567229 358.835621 219.567229 343.390861l38.384216 0 0-32.252565-29.299303 0L228.652142 295.694559l29.299303 0 0-31.343869 17.261129 0 0 31.343869 45.198411 0 0-31.343869 17.261129 0 0 31.343869 34.523281 0 0 15.44476-34.523281 0 0 32.252565 42.700521 0L380.372635 358.835621zM275.212574 343.390861l45.198411 0 0-32.252565-45.198411 0L275.212574 343.390861z" p-id="22885"></path></svg>