<svg t="1591852526389" class="icon" viewBox="0 0 1024 1024" version="1.1" xmlns="http://www.w3.org/2000/svg" p-id="22671" width="128" height="128"><path d="M768 469.333333c0-132.266667-68.266667-238.933333-192-268.8V170.666667c0-34.133333-29.866667-64-64-64s-64 29.866667-64 64v29.866666C324.266667 230.4 256 337.066667 256 469.333333v213.333334l-85.333333 85.333333v42.666667h682.666666v-42.666667l-85.333333-85.333333v-213.333334zM324.266667 174.933333L264.533333 115.2c-102.4 76.8-170.666667 196.266667-174.933333 332.8h85.333333c4.266667-115.2 59.733333-213.333333 149.333334-273.066667zM853.333333 448h85.333334c-4.266667-136.533333-72.533333-256-174.933334-332.8l-59.733333 59.733333c85.333333 59.733333 140.8 157.866667 149.333333 273.066667zM512 938.666667h17.066667c25.6-4.266667 51.2-25.6 59.733333-51.2 4.266667-8.533333 4.266667-21.333333 4.266667-34.133334h-170.666667c4.266667 46.933333 42.666667 85.333333 89.6 85.333334z" p-id="22672"></path></svg>