<svg t="1591852464204" class="icon" viewBox="0 0 1024 1024" version="1.1" xmlns="http://www.w3.org/2000/svg" p-id="22334" width="128" height="128"><path d="M874.12 132.87c-29.9-31.39-73.24-49.32-118.08-49.32s-86.69 16.44-116.58 49.32c-31.39 29.9-49.32 73.24-49.32 116.58 0 44.84 16.44 86.69 49.32 116.58 31.39 31.39 73.24 49.33 118.08 49.33s86.69-16.44 116.59-49.33c31.39-31.39 49.32-73.24 49.32-116.58-0.01-44.83-16.45-86.68-49.33-116.58z m-15.19 107.61l-34.38 31.39c-2.99 2.99-4.48 8.97-4.48 13.45l7.47 46.33c1.49 11.96-10.46 20.93-22.42 16.44l-40.36-22.42c-4.49-2.99-8.97-2.99-13.45 0l-41.85 22.42c-10.46 5.98-23.91-2.99-22.42-16.44l7.47-46.33c1.5-4.49-1.49-10.46-4.48-13.45l-34.38-32.88c-8.97-8.97-4.49-23.92 8.97-25.41l46.33-7.47c4.49 0 8.97-4.48 11.96-7.47l20.93-41.85c5.98-10.46 20.92-10.46 26.9 0l20.92 41.85c2.99 4.48 7.47 7.47 11.96 8.97l46.33 7.47c11.97 1.49 16.46 16.43 8.98 25.4z" p-id="22335"></path><path d="M801.7 709.88c-1.74-39.55 8.59-245.78 8.59-245.78 0.41-11.33 0.22-22.28-0.48-32.9-18.88 6.21-39.08 9.59-60.08 9.59-104.82 0-189.85-83.86-189.85-187.23 0-36.81 10.77-71.13 29.36-100.06-7.21-38.43-40.93-67.53-81.46-67.53-45.78 0-82.91 37.13-82.91 82.91 0 0.83 0.1 1.64 0.12 2.45-0.12 0.76-0.25 1.47-0.12 1.91-114.21 40.47-225.44 129.01-219.61 290.88 0 0 10.33 206.21 8.59 245.77-1.75 39.56-103.51 51.61-112.3 109.31-5.74 22.26 19.95 44.54 44.57 44.54h260.85c-0.6 4.53-1.03 9.13-1.03 13.82 0 56.27 45.59 101.91 101.84 101.98 56.25-0.07 101.84-45.71 101.84-101.98 0-4.69-0.43-9.29-1.04-13.82h260.86c24.61 0 50.29-22.3 44.57-44.55-8.81-57.69-110.58-69.76-112.31-109.31z" p-id="22336"></path></svg>