<svg t="1591852502573" class="icon" viewBox="0 0 1024 1024" version="1.1" xmlns="http://www.w3.org/2000/svg" p-id="22503" width="128" height="128"><path d="M528.2304 430.6432L430.4384 527.36 358.4 455.68s-194.048 95.232-253.44-163.84c0 0-2.56-26.624 21.504-22.528 0 0 60.928 101.888 134.656 71.68a156.1088 156.1088 0 0 0 84.992-116.224S360.2944 200.7552 271.36 128c0 0-8.704-32.256 33.792-20.992 0 0 227.84 70.144 148.48 249.344z m362.496 207.36l-44.032-43.52c4.096-137.216-56.32-163.84-56.32-163.84-20.992-17.92-33.792 1.536-33.792 1.536l-227.84 224.256-4.096 37.888-223.744 229.888a101.7856 101.7856 0 0 1-79.36-29.696c-39.936-33.28-24.064-88.064-24.064-88.064l227.84-225.28 38.4 5.632 199.68-198.656c46.592-108.032-86.528-113.152-86.528-113.152l-53.76-53.248L633.7024 112.64l60.928 60.416c-5.632 78.336 70.656 70.144 70.656 70.144 154.112 113.152 155.648 198.656 155.648 198.656 16.384 90.1632-30.0544 196.1472-30.0544 196.1472z m18.432 167.424l-224.256-213.504-98.816 97.792 212.48 223.744a23.8592 23.8592 0 0 0 12.8 6.656 19.3024 19.3024 0 0 0 10.752-3.584l89.088-88.576a12.7488 12.7488 0 0 0 3.584-10.24 16.3328 16.3328 0 0 0-5.632-12.288z m-54.784 1.024l-12.288 37.376a13.568 13.568 0 0 1-10.752 8.192h-39.936a12.2368 12.2368 0 0 1-10.752-8.192l-12.288-37.376a12.288 12.288 0 0 1 4.096-12.8l32.256-23.04a12.4928 12.4928 0 0 1 13.312 0l32.256 23.04a11.4176 11.4176 0 0 1 4.096 12.8z" p-id="22504"></path></svg>