<svg t="1591847868577" class="icon" viewBox="0 0 1024 1024" version="1.1" xmlns="http://www.w3.org/2000/svg" p-id="21324" width="128" height="128"><path d="M663.630769 244.184615c0 98.461538-59.076923 189.046154-149.661538 224.492308s-196.923077 15.753846-263.876923-51.2S159.507692 244.184615 194.953846 149.661538 324.923077 0 423.384615 0c63.015385 0 126.030769 27.569231 173.292308 70.892308 43.323077 47.261538 66.953846 110.276923 66.953846 173.292307zM636.061538 980.676923c-31.507692-15.753846-63.015385-35.446154-86.646153-59.076923-23.630769-23.630769-47.261538-55.138462-59.076923-86.646154-15.753846-35.446154-19.692308-70.892308-19.692308-106.338461 0-70.892308 27.569231-137.846154 74.830769-189.046154-39.384615-15.753846-82.707692-19.692308-122.092308-23.630769-248.123077 0-385.969231 200.861538-385.96923 366.276923 0 114.215385 169.353846 118.153846 382.030769 118.153846 90.584615 0 177.230769 0 240.246154-11.815385-3.938462 0-15.753846-3.938462-23.63077-7.876923z" p-id="21325"></path><path d="M962.953846 645.907692c-11.815385-27.569231-27.569231-51.2-47.261538-74.830769-43.323077-43.323077-102.4-66.953846-161.476923-66.953846-31.507692 0-63.015385 7.876923-90.584616 19.692308-27.569231 11.815385-51.2 27.569231-74.830769 47.261538-19.692308 19.692308-39.384615 47.261538-51.2 74.830769-11.815385 27.569231-19.692308 59.076923-19.692308 90.584616 0 31.507692 7.876923 63.015385 19.692308 90.584615 11.815385 27.569231 27.569231 51.2 51.2 74.830769 19.692308 19.692308 47.261538 39.384615 74.830769 51.2 27.569231 11.815385 59.076923 19.692308 90.584616 19.692308 31.507692 0 63.015385-7.876923 90.584615-19.692308 27.569231-11.815385 51.2-27.569231 74.830769-51.2 19.692308-19.692308 35.446154-47.261538 47.261539-74.830769 11.815385-27.569231 19.692308-59.076923 19.692307-90.584615-3.938462-31.507692-11.815385-63.015385-23.630769-90.584616z m-51.2 15.753846l-181.169231 181.169231-3.938461 3.938462H706.953846h-3.938461s-3.938462 0-3.938462-3.938462L588.8 732.553846c-3.938462-3.938462-3.938462-7.876923-3.938462-11.815384v-3.938462c0-3.938462 3.938462-7.876923 3.938462-11.815385 3.938462-3.938462 7.876923-7.876923 11.815385-7.876923 3.938462 0 11.815385 0 15.753846 3.938462l94.523077 98.461538 169.353846-169.353846c3.938462-3.938462 7.876923-3.938462 11.815384-3.938461 3.938462 0 11.815385 3.938462 11.815385 7.876923 15.753846 7.876923 15.753846 19.692308 7.876923 27.56923z" p-id="21326"></path><path d="M884.184615 630.153846c3.938462-3.938462 7.876923-3.938462 11.815385-3.938461-3.938462 0-7.876923 0-11.815385 3.938461zM710.892308 846.769231c-3.938462 0-3.938462 0 0 0-3.938462 0-3.938462-3.938462-7.876923-3.938462l-110.276923-110.276923c-3.938462-3.938462-3.938462-7.876923-3.938462-11.815384v-3.938462c0-3.938462 3.938462-7.876923 3.938462-11.815385-3.938462 3.938462-3.938462 7.876923-3.938462 11.815385v3.938462c0 3.938462 3.938462 7.876923 3.938462 11.815384l110.276923 110.276923s3.938462 3.938462 7.876923 3.938462c-3.938462 0-3.938462 0 0 0h15.753846-15.753846z" p-id="21327"></path></svg>