<svg t="1591852228543" class="icon" viewBox="0 0 1024 1024" version="1.1" xmlns="http://www.w3.org/2000/svg" p-id="22166" width="128" height="128"><path d="M402.054737 121.802105a744.286316 744.286316 0 0 1 218.812631 0c50.930526 9.970526 102.130526 18.054737 149.827369 30.989474a107.789474 107.789474 0 0 1 75.722105 69.52421c20.749474 57.397895 42.576842 114.526316 65.212632 170.846316 4.042105 9.701053 16.437895 23.713684 23.44421 22.63579a75.183158 75.183158 0 0 1 86.770527 59.014737 61.44 61.44 0 0 1 0 31.258947l-58.47579 15.36a451.637895 451.637895 0 0 1 6.736842 60.092632v277.827368a78.686316 78.686316 0 0 1-17.515789 46.08 494.214737 494.214737 0 0 1-161.684211 2.96421c-37.726316-23.713684-14.282105-63.326316-26.947368-95.12421H267.587368c-9.701053 33.953684-15.36 91.082105-26.947368 95.12421a496.909474 496.909474 0 0 1-167.073684 0 90.273684 90.273684 0 0 1-18.324211-53.894736C53.894737 815.157895 53.894737 777.162105 53.894737 738.088421c0-72.757895 0-145.246316 2.96421-218.543158l-53.894736-14.012631a53.894737 53.894737 0 0 1 0-24.522106c15.36-39.882105 35.84-71.141053 88.387368-66.56 5.928421 0 17.785263-12.126316 21.288421-21.018947A1299.671579 1299.671579 0 0 0 161.684211 256.808421a172.732632 172.732632 0 0 1 153.061052-123.957895c26.947368-5.12 57.128421-8.623158 85.153684-13.20421l1.616842 2.155789zM175.966316 431.157895a1647.562105 1647.562105 0 0 0 667.486316 0c-18.863158-55.511579-37.726316-105.364211-50.930527-155.486316a84.345263 84.345263 0 0 0-84.614737-66.56c-105.633684-4.581053-211.806316-8.084211-317.44-9.162105a463.494737 463.494737 0 0 0-101.861052 15.629473 58.475789 58.475789 0 0 0-37.456842 25.061053C222.585263 301.541053 201.296842 364.058947 175.966316 431.157895z m43.385263 236.328421a265.162105 265.162105 0 0 0 53.894737-2.964211 50.930526 50.930526 0 0 0 33.145263-24.791579c2.425263-7.275789-9.162105-26.947368-19.402105-30.450526A1202.391579 1202.391579 0 0 0 161.684211 559.427368c-21.557895-7.006316-46.08-5.389474-51.2 23.983158-10.24 43.654737 0 67.907368 33.145263 74.644211a730.004211 730.004211 0 0 0 80.842105 8.623158z m588.261053 0a734.854737 734.854737 0 0 0 80.842105-10.24c37.726316-8.084211 29.372632-37.456842 27.755789-64.404211s-15.090526-39.073684-36.109473-33.145263A1148.227368 1148.227368 0 0 0 727.578947 616.016842c-22.366316 10.509474-14.282105 39.612632 11.317895 45.271579a590.686316 590.686316 0 0 0 68.985263 5.928421z" p-id="22167"></path></svg>