<svg t="1591847948585" class="icon" viewBox="0 0 1024 1024" version="1.1" xmlns="http://www.w3.org/2000/svg" p-id="21662" width="128" height="128"><path d="M647.68 807.424V464.896h25.6c13.824 0 25.6 10.752 25.6 23.552V706.56c0 55.808 49.152 101.376 110.08 101.376s110.08-45.056 110.08-101.376V287.232c0-22.016-10.24-41.984-25.6-55.808l-90.112-81.92c-15.872-14.848-42.496-14.848-58.368 0-15.872 14.848-15.872 38.912 0 54.272l57.856 53.76-43.008 41.472c-13.824 13.312-13.824 34.816 0 48.128 7.168 7.168 15.872 10.24 25.6 10.24h48.64v350.208c0 12.8-11.264 23.552-25.6 23.552-13.824 0-25.6-10.752-25.6-23.552V488.96c0-55.808-49.152-101.376-110.08-101.376h-25.088V201.728c0-34.816-30.208-61.952-68.096-61.952H223.744c-37.376 0-68.096 27.648-68.096 61.952v606.208h-8.704c-23.552 0-42.496 17.408-42.496 38.912s18.944 38.912 42.496 38.912h508.928c23.552 0 42.496-17.408 42.496-38.912s-18.944-38.912-42.496-38.912h-8.704v-0.512zM277.504 216.576h247.808c20.992 0 37.376 14.848 37.376 34.304v164.864c0 18.944-16.384 34.304-37.376 34.304H277.504c-20.992 0-37.376-14.848-37.376-34.304V250.368c0.512-18.944 17.408-33.792 37.376-33.792z" p-id="21663"></path></svg>